<?xml version="1.0" encoding="UTF-8" standalone="no"?>
<!DOCTYPE svg PUBLIC "-//W3C//DTD SVG 1.1//EN"
 "http://www.w3.org/Graphics/SVG/1.1/DTD/svg11.dtd">
<!-- Generated by graphviz version 2.40.1 (20161225.0304)
 -->
<!-- Title: %3 Pages: 1 -->
<svg width="2769pt" height="1072pt"
 viewBox="0.00 0.00 2769.02 1072.00" xmlns="http://www.w3.org/2000/svg" xmlns:xlink="http://www.w3.org/1999/xlink">
<g id="graph0" class="graph" transform="scale(1 1) rotate(0) translate(4 1068)">
<title>%3</title>
<polygon fill="#ffffff" stroke="transparent" points="-4,4 -4,-1068 2765.0196,-1068 2765.0196,4 -4,4"/>
<g id="clust1" class="cluster">
<title>cluster&#45;nid&#45;02</title>
<polygon fill="none" stroke="#cccccc" points="842.9915,-730 842.9915,-796 1310.0452,-796 1310.0452,-730 842.9915,-730"/>
</g>
<g id="clust2" class="cluster">
<title>cluster&#45;nid&#45;03</title>
<polygon fill="none" stroke="#cccccc" points="842.9915,-806 842.9915,-872 1310.0452,-872 1310.0452,-806 842.9915,-806"/>
</g>
<g id="clust5" class="cluster">
<title>cluster&#45;nid&#45;06</title>
<polygon fill="none" stroke="#cccccc" points="1951.1276,-939 1951.1276,-1005 2100.2736,-1005 2100.2736,-939 1951.1276,-939"/>
</g>
<g id="clust7" class="cluster">
<title>cluster&#45;nid&#45;08</title>
<polygon fill="none" stroke="#cccccc" points="1990.7006,-400 1990.7006,-466 2436.2504,-466 2436.2504,-400 1990.7006,-400"/>
</g>
<g id="clust8" class="cluster">
<title>cluster&#45;nid&#45;09</title>
<polygon fill="none" stroke="#cccccc" points="1990.7006,-220 1990.7006,-286 2436.2504,-286 2436.2504,-220 1990.7006,-220"/>
</g>
<g id="clust9" class="cluster">
<title>cluster&#45;nid&#45;0a</title>
<polygon fill="none" stroke="#cccccc" points="842.9915,-929 842.9915,-995 932.1992,-995 932.1992,-929 842.9915,-929"/>
</g>
<g id="clust10" class="cluster">
<title>cluster&#45;nid&#45;0b</title>
<polygon fill="none" stroke="#cccccc" points="798.9629,-406 798.9629,-652 1325.3117,-652 1325.3117,-406 798.9629,-406"/>
</g>
<g id="clust11" class="cluster">
<title>cluster&#45;nid&#45;0c</title>
<polygon fill="none" stroke="#cccccc" points="1573.8626,-669 1573.8626,-791 2075.967,-791 2075.967,-669 1573.8626,-669"/>
</g>
<g id="clust12" class="cluster">
<title>cluster&#45;nid&#45;0d</title>
<polygon fill="none" stroke="#cccccc" points="1573.8626,-802 1573.8626,-876 2075.967,-876 2075.967,-802 1573.8626,-802"/>
</g>
<g id="clust16" class="cluster">
<title>cluster&#45;nid&#45;11</title>
<polygon fill="none" stroke="#cccccc" points="1990.7006,-60 1990.7006,-126 2436.2504,-126 2436.2504,-60 1990.7006,-60"/>
</g>
<g id="clust18" class="cluster">
<title>cluster&#45;nid&#45;12&#45;out</title>
<polygon fill="none" stroke="#cccccc" points="1176.2278,-8 1176.2278,-88 1373.8626,-88 1373.8626,-8 1176.2278,-8"/>
</g>
<g id="clust20" class="cluster">
<title>cluster&#45;nid&#45;13&#45;out</title>
<polygon fill="none" stroke="#cccccc" points="1183.4227,-96 1183.4227,-176 1366.6678,-176 1366.6678,-96 1183.4227,-96"/>
</g>
<g id="clust21" class="cluster">
<title>cluster&#45;nid&#45;14&#45;in</title>
<polygon fill="none" stroke="#cccccc" points="2300.6119,-624 2300.6119,-704 2482.6813,-704 2482.6813,-624 2300.6119,-624"/>
</g>
<g id="clust25" class="cluster">
<title>cluster&#45;nid&#45;17&#45;in</title>
<polygon fill="none" stroke="#cccccc" points="2301.3981,-888 2301.3981,-968 2481.8951,-968 2481.8951,-888 2301.3981,-888"/>
</g>
<g id="clust28" class="cluster">
<title>cluster&#45;nid&#45;18&#45;out</title>
<polygon fill="none" stroke="#cccccc" points="412.0229,-245 412.0229,-325 575.437,-325 575.437,-245 412.0229,-245"/>
</g>
<g id="clust30" class="cluster">
<title>cluster&#45;nid&#45;19&#45;out</title>
<polygon fill="none" stroke="#cccccc" points="403.4814,-595 403.4814,-675 583.9785,-675 583.9785,-595 403.4814,-595"/>
</g>
<g id="clust31" class="cluster">
<title>cluster&#45;nid&#45;1a&#45;in</title>
<polygon fill="none" stroke="#cccccc" points="2301.3981,-800 2301.3981,-880 2753.0196,-880 2753.0196,-800 2301.3981,-800"/>
</g>
<g id="clust32" class="cluster">
<title>cluster&#45;nid&#45;1a&#45;out</title>
<polygon fill="none" stroke="#cccccc" points="63.2485,-507 63.2485,-587 583.9785,-587 583.9785,-507 63.2485,-507"/>
</g>
<g id="clust36" class="cluster">
<title>cluster&#45;nid&#45;1d&#45;out</title>
<polygon fill="none" stroke="#cccccc" points="388.4971,-333 388.4971,-413 598.9629,-413 598.9629,-333 388.4971,-333"/>
</g>
<g id="clust37" class="cluster">
<title>cluster&#45;nid&#45;1e&#45;in</title>
<polygon fill="none" stroke="#cccccc" points="2301.3981,-976 2301.3981,-1056 2481.8951,-1056 2481.8951,-976 2301.3981,-976"/>
</g>
<g id="clust40" class="cluster">
<title>cluster&#45;nid&#45;1f&#45;out</title>
<polygon fill="none" stroke="#cccccc" points="8,-922 8,-1002 188.4971,-1002 188.4971,-922 8,-922"/>
</g>
<g id="clust42" class="cluster">
<title>cluster&#45;nid&#45;21&#45;in</title>
<polygon fill="none" stroke="#cccccc" points="2300.2736,-712 2300.2736,-792 2483.0196,-792 2483.0196,-712 2300.2736,-712"/>
</g>
<g id="clust44" class="cluster">
<title>cluster&#45;nid&#45;22</title>
<polygon fill="none" stroke="#cccccc" points="1600.8269,-209 1600.8269,-297 1724.1633,-297 1724.1633,-209 1600.8269,-209"/>
</g>
<g id="clust45" class="cluster">
<title>cluster&#45;nid&#45;23</title>
<polygon fill="none" stroke="#cccccc" points="1600.8269,-389 1600.8269,-477 1724.1633,-477 1724.1633,-389 1600.8269,-389"/>
</g>
<g id="clust46" class="cluster">
<title>cluster&#45;nid&#45;24</title>
<polygon fill="none" stroke="#cccccc" points="1600.8269,-49 1600.8269,-137 1724.1633,-137 1724.1633,-49 1600.8269,-49"/>
</g>
<g id="clust47" class="cluster">
<title>cluster&#45;nid&#45;25</title>
<polygon fill="none" stroke="#cccccc" points="432.0618,-918 432.0618,-1006 555.3982,-1006 555.3982,-918 432.0618,-918"/>
</g>
<!-- nid&#45;02 -->
<g id="node1" class="node">
<title>nid&#45;02</title>
<ellipse fill="none" stroke="#0000ff" cx="887.5954" cy="-763" rx="36.7079" ry="25.4118"/>
<text text-anchor="middle" x="887.5954" y="-765.8" font-family="Times,serif" font-size="14.00" fill="#000000">0x02</text>
<text text-anchor="middle" x="887.5954" y="-751.8" font-family="Times,serif" font-size="14.00" fill="#000000">Stereo</text>
</g>
<!-- nid&#45;02&#45;ampout -->
<g id="node2" class="node">
<title>nid&#45;02&#45;ampout</title>
<polygon fill="none" stroke="#0000ff" points="1302.0452,-763 1261.5452,-781 1261.5452,-745 1302.0452,-763"/>
</g>
<!-- nid&#45;02&#45;&gt;nid&#45;02&#45;ampout -->
<g id="edge1" class="edge">
<title>nid&#45;02&#45;&gt;nid&#45;02&#45;ampout</title>
<path fill="none" stroke="#0000ff" d="M924.395,-763C1005.257,-763 1196.0256,-763 1256.3896,-763"/>
<polygon fill="#0000ff" stroke="#0000ff" points="1256.4922,-764.7501 1261.4921,-763 1256.4921,-761.2501 1256.4922,-764.7501"/>
</g>
<!-- nid&#45;0c&#45;ampin&#45;2 -->
<g id="node24" class="node">
<title>nid&#45;0c&#45;ampin&#45;2</title>
<polygon fill="none" stroke="#0000ff" points="1743.2603,-761 1622.1125,-783 1622.1125,-739 1743.2603,-761"/>
<text text-anchor="middle" x="1662.4951" y="-756.8" font-family="Times,serif" font-size="14.00" fill="#000000">0 (0x02)</text>
</g>
<!-- nid&#45;02&#45;ampout&#45;&gt;nid&#45;0c&#45;ampin&#45;2 -->
<g id="edge18" class="edge">
<title>nid&#45;02&#45;ampout&#45;&gt;nid&#45;0c&#45;ampin&#45;2</title>
<path fill="none" stroke="#333333" d="M1301.9823,-762.861C1366.0834,-762.5301 1528.531,-761.6915 1611.7133,-761.2621"/>
<polygon fill="#333333" stroke="#333333" points="1611.9558,-764.761 1621.9375,-761.2094 1611.9196,-757.7611 1611.9558,-764.761"/>
</g>
<!-- nid&#45;03 -->
<g id="node3" class="node">
<title>nid&#45;03</title>
<ellipse fill="none" stroke="#0000ff" cx="887.5954" cy="-839" rx="36.7079" ry="25.4118"/>
<text text-anchor="middle" x="887.5954" y="-841.8" font-family="Times,serif" font-size="14.00" fill="#000000">0x03</text>
<text text-anchor="middle" x="887.5954" y="-827.8" font-family="Times,serif" font-size="14.00" fill="#000000">Stereo</text>
</g>
<!-- nid&#45;03&#45;ampout -->
<g id="node4" class="node">
<title>nid&#45;03&#45;ampout</title>
<polygon fill="none" stroke="#0000ff" points="1302.0452,-839 1261.5452,-857 1261.5452,-821 1302.0452,-839"/>
</g>
<!-- nid&#45;03&#45;&gt;nid&#45;03&#45;ampout -->
<g id="edge2" class="edge">
<title>nid&#45;03&#45;&gt;nid&#45;03&#45;ampout</title>
<path fill="none" stroke="#0000ff" d="M924.395,-839C1005.257,-839 1196.0256,-839 1256.3896,-839"/>
<polygon fill="#0000ff" stroke="#0000ff" points="1256.4922,-840.7501 1261.4921,-839 1256.4921,-837.2501 1256.4922,-840.7501"/>
</g>
<!-- nid&#45;0d&#45;ampin&#45;3 -->
<g id="node27" class="node">
<title>nid&#45;0d&#45;ampin&#45;3</title>
<polygon fill="none" stroke="#0000ff" points="1743.2603,-839 1622.1125,-861 1622.1125,-817 1743.2603,-839"/>
<text text-anchor="middle" x="1662.4951" y="-834.8" font-family="Times,serif" font-size="14.00" fill="#000000">0 (0x03)</text>
</g>
<!-- nid&#45;03&#45;ampout&#45;&gt;nid&#45;0d&#45;ampin&#45;3 -->
<g id="edge21" class="edge">
<title>nid&#45;03&#45;ampout&#45;&gt;nid&#45;0d&#45;ampin&#45;3</title>
<path fill="none" stroke="#333333" d="M1302.2899,-839C1366.6294,-839 1528.8039,-839 1611.821,-839"/>
<polygon fill="#333333" stroke="#333333" points="1612.0247,-842.5001 1622.0246,-839 1612.0246,-835.5001 1612.0247,-842.5001"/>
</g>
<!-- nid&#45;06 -->
<g id="node5" class="node">
<title>nid&#45;06</title>
<ellipse fill="none" stroke="#0000ff" cx="2025.7006" cy="-972" rx="66.6461" ry="25.4118"/>
<text text-anchor="middle" x="2025.7006" y="-974.8" font-family="Times,serif" font-size="14.00" fill="#000000">0x06</text>
<text text-anchor="middle" x="2025.7006" y="-960.8" font-family="Times,serif" font-size="14.00" fill="#000000">Stereo Digital</text>
</g>
<!-- nid&#45;17&#45;in -->
<g id="node34" class="node">
<title>nid&#45;17&#45;in</title>
<polygon fill="none" stroke="#00ff00" points="2474.1444,-960 2309.1488,-960 2309.1488,-896 2474.1444,-896 2474.1444,-960"/>
<text text-anchor="middle" x="2391.6466" y="-944.8" font-family="Times,serif" font-size="14.00" fill="#000000">0x17</text>
<text text-anchor="middle" x="2391.6466" y="-930.8" font-family="Times,serif" font-size="14.00" fill="#000000">[N/A] Speaker at Ext Rear</text>
<text text-anchor="middle" x="2391.6466" y="-916.8" font-family="Times,serif" font-size="14.00" fill="#000000">Stereo</text>
<text text-anchor="middle" x="2391.6466" y="-902.8" font-family="Times,serif" font-size="14.00" fill="#000000">OUT HP EAPD Detect</text>
</g>
<!-- nid&#45;06&#45;&gt;nid&#45;17&#45;in -->
<g id="edge28" class="edge">
<title>nid&#45;06&#45;&gt;nid&#45;17&#45;in</title>
<path fill="none" stroke="#c0c0c0" stroke-dasharray="5,2" d="M2089.4435,-964.3358C2147.3683,-957.3711 2233.5301,-947.0113 2299.0482,-939.1337"/>
<polygon fill="#c0c0c0" stroke="#c0c0c0" points="2299.868,-942.5604 2309.3787,-937.8916 2299.0323,-935.6105 2299.868,-942.5604"/>
</g>
<!-- nid&#45;1e&#45;in -->
<g id="node38" class="node">
<title>nid&#45;1e&#45;in</title>
<polygon fill="none" stroke="#00ff00" points="2474.1444,-1048 2309.1488,-1048 2309.1488,-984 2474.1444,-984 2474.1444,-1048"/>
<text text-anchor="middle" x="2391.6466" y="-1032.8" font-family="Times,serif" font-size="14.00" fill="#000000">0x1e</text>
<text text-anchor="middle" x="2391.6466" y="-1018.8" font-family="Times,serif" font-size="14.00" fill="#000000">[N/A] Speaker at Ext Rear</text>
<text text-anchor="middle" x="2391.6466" y="-1004.8" font-family="Times,serif" font-size="14.00" fill="#000000">Stereo Digital</text>
<text text-anchor="middle" x="2391.6466" y="-990.8" font-family="Times,serif" font-size="14.00" fill="#000000">OUT Detect</text>
</g>
<!-- nid&#45;06&#45;&gt;nid&#45;1e&#45;in -->
<g id="edge33" class="edge">
<title>nid&#45;06&#45;&gt;nid&#45;1e&#45;in</title>
<path fill="none" stroke="#333333" d="M2089.4435,-979.6642C2147.3683,-986.6289 2233.5301,-996.9887 2299.0482,-1004.8663"/>
<polygon fill="#333333" stroke="#333333" points="2299.0323,-1008.3895 2309.3787,-1006.1084 2299.868,-1001.4396 2299.0323,-1008.3895"/>
</g>
<!-- nid&#45;08 -->
<g id="node6" class="node">
<title>nid&#45;08</title>
<ellipse fill="none" stroke="#ff0000" cx="2391.6466" cy="-433" rx="36.7079" ry="25.4118"/>
<text text-anchor="middle" x="2391.6466" y="-435.8" font-family="Times,serif" font-size="14.00" fill="#000000">0x08</text>
<text text-anchor="middle" x="2391.6466" y="-421.8" font-family="Times,serif" font-size="14.00" fill="#000000">Stereo</text>
</g>
<!-- nid&#45;08&#45;ampin -->
<g id="node7" class="node">
<title>nid&#45;08&#45;ampin</title>
<polygon fill="none" stroke="#c8c8c8" points="2052.7006,-433 2012.2006,-451 2012.2006,-415 2052.7006,-433"/>
</g>
<!-- nid&#45;08&#45;ampin&#45;&gt;nid&#45;08 -->
<g id="edge3" class="edge">
<title>nid&#45;08&#45;ampin&#45;&gt;nid&#45;08</title>
<path fill="none" stroke="#c8c8c8" d="M2052.907,-433C2116.2361,-433 2273.8677,-433 2349.653,-433"/>
<polygon fill="#c8c8c8" stroke="#c8c8c8" points="2349.9657,-434.7501 2354.9657,-433 2349.9656,-431.2501 2349.9657,-434.7501"/>
</g>
<!-- nid&#45;23 -->
<g id="node8" class="node">
<title>nid&#45;23</title>
<polygon fill="none" stroke="#000000" points="1716.332,-469 1630.6895,-469 1608.6582,-397 1694.3006,-397 1716.332,-469"/>
<text text-anchor="middle" x="1662.4951" y="-435.8" font-family="Times,serif" font-size="14.00" fill="#000000">0x23</text>
<text text-anchor="middle" x="1662.4951" y="-421.8" font-family="Times,serif" font-size="14.00" fill="#000000">Stereo</text>
</g>
<!-- nid&#45;23&#45;&gt;nid&#45;08&#45;ampin -->
<g id="edge4" class="edge">
<title>nid&#45;23&#45;&gt;nid&#45;08&#45;ampin</title>
<path fill="none" stroke="#333333" d="M1705.5858,-433C1782.7136,-433 1941.9077,-433 2002.0208,-433"/>
<polygon fill="#333333" stroke="#333333" points="2002.0502,-436.5001 2012.0501,-433 2002.0501,-429.5001 2002.0502,-436.5001"/>
</g>
<!-- nid&#45;09 -->
<g id="node9" class="node">
<title>nid&#45;09</title>
<ellipse fill="none" stroke="#ff0000" cx="2391.6466" cy="-253" rx="36.7079" ry="25.4118"/>
<text text-anchor="middle" x="2391.6466" y="-255.8" font-family="Times,serif" font-size="14.00" fill="#000000">0x09</text>
<text text-anchor="middle" x="2391.6466" y="-241.8" font-family="Times,serif" font-size="14.00" fill="#000000">Stereo</text>
</g>
<!-- nid&#45;09&#45;ampin -->
<g id="node10" class="node">
<title>nid&#45;09&#45;ampin</title>
<polygon fill="none" stroke="#2525f4" points="2052.7006,-253 2012.2006,-271 2012.2006,-235 2052.7006,-253"/>
</g>
<!-- nid&#45;09&#45;ampin&#45;&gt;nid&#45;09 -->
<g id="edge5" class="edge">
<title>nid&#45;09&#45;ampin&#45;&gt;nid&#45;09</title>
<path fill="none" stroke="#2525f4" d="M2052.907,-253C2116.2361,-253 2273.8677,-253 2349.653,-253"/>
<polygon fill="#2525f4" stroke="#2525f4" points="2349.9657,-254.7501 2354.9657,-253 2349.9656,-251.2501 2349.9657,-254.7501"/>
</g>
<!-- nid&#45;22 -->
<g id="node11" class="node">
<title>nid&#45;22</title>
<polygon fill="none" stroke="#000000" points="1716.332,-289 1630.6895,-289 1608.6582,-217 1694.3006,-217 1716.332,-289"/>
<text text-anchor="middle" x="1662.4951" y="-255.8" font-family="Times,serif" font-size="14.00" fill="#000000">0x22</text>
<text text-anchor="middle" x="1662.4951" y="-241.8" font-family="Times,serif" font-size="14.00" fill="#000000">Stereo</text>
</g>
<!-- nid&#45;22&#45;&gt;nid&#45;09&#45;ampin -->
<g id="edge6" class="edge">
<title>nid&#45;22&#45;&gt;nid&#45;09&#45;ampin</title>
<path fill="none" stroke="#333333" d="M1705.5858,-253C1782.7136,-253 1941.9077,-253 2002.0208,-253"/>
<polygon fill="#333333" stroke="#333333" points="2002.0502,-256.5001 2012.0501,-253 2002.0501,-249.5001 2002.0502,-256.5001"/>
</g>
<!-- nid&#45;0a -->
<g id="node12" class="node">
<title>nid&#45;0a</title>
<ellipse fill="none" stroke="#ff0000" cx="887.5954" cy="-962" rx="36.7079" ry="25.4118"/>
<text text-anchor="middle" x="887.5954" y="-964.8" font-family="Times,serif" font-size="14.00" fill="#000000">0x0a</text>
<text text-anchor="middle" x="887.5954" y="-950.8" font-family="Times,serif" font-size="14.00" fill="#000000">Stereo</text>
</g>
<!-- nid&#45;25 -->
<g id="node13" class="node">
<title>nid&#45;25</title>
<polygon fill="none" stroke="#000000" points="547.5669,-998 461.9244,-998 439.8931,-926 525.5355,-926 547.5669,-998"/>
<text text-anchor="middle" x="493.73" y="-964.8" font-family="Times,serif" font-size="14.00" fill="#000000">0x25</text>
<text text-anchor="middle" x="493.73" y="-950.8" font-family="Times,serif" font-size="14.00" fill="#000000">Stereo</text>
</g>
<!-- nid&#45;25&#45;&gt;nid&#45;0a -->
<g id="edge7" class="edge">
<title>nid&#45;25&#45;&gt;nid&#45;0a</title>
<path fill="none" stroke="#333333" d="M536.6303,-962C610.9897,-962 763.2448,-962 840.4557,-962"/>
<polygon fill="#333333" stroke="#333333" points="840.8366,-965.5001 850.8365,-962 840.8365,-958.5001 840.8366,-965.5001"/>
</g>
<!-- nid&#45;0b -->
<g id="node14" class="node">
<title>nid&#45;0b</title>
<polygon fill="none" stroke="#000000" points="1317.0794,-498 1296.0623,-527.2881 1254.0281,-527.2881 1233.011,-498 1254.0281,-468.7119 1296.0623,-468.7119 1317.0794,-498"/>
<text text-anchor="middle" x="1275.0452" y="-500.8" font-family="Times,serif" font-size="14.00" fill="#000000">0x0b</text>
<text text-anchor="middle" x="1275.0452" y="-486.8" font-family="Times,serif" font-size="14.00" fill="#000000">Stereo</text>
</g>
<!-- nid&#45;0b&#45;&gt;nid&#45;23 -->
<g id="edge46" class="edge">
<title>nid&#45;0b&#45;&gt;nid&#45;23</title>
<path fill="none" stroke="#c0c0c0" stroke-dasharray="5,2" d="M1312.901,-491.6492C1382.8785,-479.9095 1532.5104,-454.8067 1611.3968,-441.5724"/>
<polygon fill="#c0c0c0" stroke="#c0c0c0" points="1612.2978,-444.9703 1621.5809,-439.8639 1611.1396,-438.0667 1612.2978,-444.9703"/>
</g>
<!-- nid&#45;0b&#45;&gt;nid&#45;22 -->
<g id="edge40" class="edge">
<title>nid&#45;0b&#45;&gt;nid&#45;22</title>
<path fill="none" stroke="#c0c0c0" stroke-dasharray="5,2" d="M1304.1669,-479.5852C1371.272,-437.152 1537.166,-332.2506 1617.4871,-281.4604"/>
<polygon fill="#c0c0c0" stroke="#c0c0c0" points="1619.8004,-284.1386 1626.3818,-275.8359 1616.0592,-278.2222 1619.8004,-284.1386"/>
</g>
<!-- nid&#45;0c&#45;ampin&#45;11 -->
<g id="node25" class="node">
<title>nid&#45;0c&#45;ampin&#45;11</title>
<polygon fill="none" stroke="#c8c8c8" points="1743.2603,-699 1622.1125,-721 1622.1125,-677 1743.2603,-699"/>
<text text-anchor="middle" x="1662.4951" y="-694.8" font-family="Times,serif" font-size="14.00" fill="#000000">1 (0x0b)</text>
</g>
<!-- nid&#45;0b&#45;&gt;nid&#45;0c&#45;ampin&#45;11 -->
<g id="edge19" class="edge">
<title>nid&#45;0b&#45;&gt;nid&#45;0c&#45;ampin&#45;11</title>
<path fill="none" stroke="#333333" d="M1305.7716,-513.9401C1372.6406,-548.6302 1531.859,-631.229 1613.0496,-673.3488"/>
<polygon fill="#333333" stroke="#333333" points="1611.591,-676.535 1622.0793,-678.0332 1614.8145,-670.3214 1611.591,-676.535"/>
</g>
<!-- nid&#45;0b&#45;ampin&#45;24 -->
<g id="node15" class="node">
<title>nid&#45;0b&#45;ampin&#45;24</title>
<polygon fill="none" stroke="#c8c8c8" points="968.3605,-436 847.2128,-458 847.2128,-414 968.3605,-436"/>
<text text-anchor="middle" x="887.5954" y="-431.8" font-family="Times,serif" font-size="14.00" fill="#000000">0 (0x18)</text>
</g>
<!-- nid&#45;0b&#45;ampin&#45;24&#45;&gt;nid&#45;0b -->
<g id="edge8" class="edge">
<title>nid&#45;0b&#45;ampin&#45;24&#45;&gt;nid&#45;0b</title>
<path fill="none" stroke="#c8c8c8" d="M930.5396,-442.872C1005.0016,-454.7874 1157.2424,-479.1491 1231.867,-491.0906"/>
<polygon fill="#c8c8c8" stroke="#c8c8c8" points="1231.8899,-492.8664 1237.1037,-491.9286 1232.443,-489.4104 1231.8899,-492.8664"/>
</g>
<!-- nid&#45;0b&#45;ampin&#45;25 -->
<g id="node16" class="node">
<title>nid&#45;0b&#45;ampin&#45;25</title>
<polygon fill="none" stroke="#c8c8c8" points="968.3605,-622 847.2128,-644 847.2128,-600 968.3605,-622"/>
<text text-anchor="middle" x="887.5954" y="-617.8" font-family="Times,serif" font-size="14.00" fill="#000000">1 (0x19)</text>
</g>
<!-- nid&#45;0b&#45;ampin&#45;25&#45;&gt;nid&#45;0b -->
<g id="edge9" class="edge">
<title>nid&#45;0b&#45;ampin&#45;25&#45;&gt;nid&#45;0b</title>
<path fill="none" stroke="#c8c8c8" d="M917.0351,-612.5781C985.9831,-590.5119 1157.9568,-535.4731 1235.7384,-510.5798"/>
<polygon fill="#c8c8c8" stroke="#c8c8c8" points="1236.4948,-512.1752 1240.7234,-508.9844 1235.4279,-508.8418 1236.4948,-512.1752"/>
</g>
<!-- nid&#45;0b&#45;ampin&#45;26 -->
<g id="node17" class="node">
<title>nid&#45;0b&#45;ampin&#45;26</title>
<polygon fill="none" stroke="#c8c8c8" points="967.3742,-560 847.7059,-582 847.7059,-538 967.3742,-560"/>
<text text-anchor="middle" x="887.5954" y="-555.8" font-family="Times,serif" font-size="14.00" fill="#000000">2 (0x1a)</text>
</g>
<!-- nid&#45;0b&#45;ampin&#45;26&#45;&gt;nid&#45;0b -->
<g id="edge10" class="edge">
<title>nid&#45;0b&#45;ampin&#45;26&#45;&gt;nid&#45;0b</title>
<path fill="none" stroke="#c8c8c8" d="M930.5396,-553.128C1005.0016,-541.2126 1157.2424,-516.8509 1231.867,-504.9094"/>
<polygon fill="#c8c8c8" stroke="#c8c8c8" points="1232.443,-506.5896 1237.1037,-504.0714 1231.8899,-503.1336 1232.443,-506.5896"/>
</g>
<!-- nid&#45;0b&#45;ampin&#45;29 -->
<g id="node18" class="node">
<title>nid&#45;0b&#45;ampin&#45;29</title>
<polygon fill="none" stroke="#c8c8c8" points="968.3605,-498 847.2128,-520 847.2128,-476 968.3605,-498"/>
<text text-anchor="middle" x="887.5954" y="-493.8" font-family="Times,serif" font-size="14.00" fill="#000000">3 (0x1d)</text>
</g>
<!-- nid&#45;0b&#45;ampin&#45;29&#45;&gt;nid&#45;0b -->
<g id="edge11" class="edge">
<title>nid&#45;0b&#45;ampin&#45;29&#45;&gt;nid&#45;0b</title>
<path fill="none" stroke="#c8c8c8" d="M968.3459,-498C1046.7579,-498 1163.127,-498 1227.6395,-498"/>
<polygon fill="#c8c8c8" stroke="#c8c8c8" points="1227.9554,-499.7501 1232.9554,-498 1227.9553,-496.2501 1227.9554,-499.7501"/>
</g>
<!-- nid&#45;18&#45;out -->
<g id="node19" class="node">
<title>nid&#45;18&#45;out</title>
<polygon fill="none" stroke="#00ff00" points="567.6446,-317 419.8153,-317 419.8153,-253 567.6446,-253 567.6446,-317"/>
<text text-anchor="middle" x="493.73" y="-301.8" font-family="Times,serif" font-size="14.00" fill="#000000">0x18</text>
<text text-anchor="middle" x="493.73" y="-287.8" font-family="Times,serif" font-size="14.00" fill="#000000">[Jack] Mic at Ext Right</text>
<text text-anchor="middle" x="493.73" y="-273.8" font-family="Times,serif" font-size="14.00" fill="#000000">Stereo</text>
<text text-anchor="middle" x="493.73" y="-259.8" font-family="Times,serif" font-size="14.00" fill="#000000">IN Detect</text>
</g>
<!-- nid&#45;18&#45;out&#45;&gt;nid&#45;23 -->
<g id="edge42" class="edge">
<title>nid&#45;18&#45;out&#45;&gt;nid&#45;23</title>
<path fill="none" stroke="#c0c0c0" stroke-dasharray="5,2" d="M567.4807,-292.2759C718.8895,-307.4747 1075.6476,-344.6324 1373.8626,-386 1455.2221,-397.286 1549.0253,-413.0786 1607.0493,-423.174"/>
<polygon fill="#c0c0c0" stroke="#c0c0c0" points="1606.6506,-426.6573 1617.1035,-424.9287 1607.8541,-419.7615 1606.6506,-426.6573"/>
</g>
<!-- nid&#45;18&#45;out&#45;&gt;nid&#45;22 -->
<g id="edge36" class="edge">
<title>nid&#45;18&#45;out&#45;&gt;nid&#45;22</title>
<path fill="none" stroke="#c0c0c0" stroke-dasharray="5,2" d="M567.668,-264.6978C629.0547,-248.9478 718.9479,-228.4252 798.9629,-220 1053.0691,-193.2437 1118.7654,-205.4644 1373.8626,-220 1455.3293,-224.642 1549.1042,-236.5968 1607.0929,-244.7673"/>
<polygon fill="#c0c0c0" stroke="#c0c0c0" points="1606.7476,-248.2533 1617.1407,-246.1957 1607.7328,-241.323 1606.7476,-248.2533"/>
</g>
<!-- nid&#45;18&#45;out&#45;&gt;nid&#45;0b&#45;ampin&#45;24 -->
<g id="edge12" class="edge">
<title>nid&#45;18&#45;out&#45;&gt;nid&#45;0b&#45;ampin&#45;24</title>
<path fill="none" stroke="#333333" d="M567.813,-313.4019C646.6107,-343.6114 769.0986,-390.5708 837.3425,-416.7341"/>
<polygon fill="#333333" stroke="#333333" points="836.4157,-420.1271 847.006,-420.4388 838.9216,-413.591 836.4157,-420.1271"/>
</g>
<!-- nid&#45;19&#45;out -->
<g id="node20" class="node">
<title>nid&#45;19&#45;out</title>
<polygon fill="none" stroke="#00ff00" points="576.2278,-667 411.2322,-667 411.2322,-603 576.2278,-603 576.2278,-667"/>
<text text-anchor="middle" x="493.73" y="-651.8" font-family="Times,serif" font-size="14.00" fill="#000000">0x19</text>
<text text-anchor="middle" x="493.73" y="-637.8" font-family="Times,serif" font-size="14.00" fill="#000000">[N/A] Speaker at Ext Rear</text>
<text text-anchor="middle" x="493.73" y="-623.8" font-family="Times,serif" font-size="14.00" fill="#000000">Stereo</text>
<text text-anchor="middle" x="493.73" y="-609.8" font-family="Times,serif" font-size="14.00" fill="#000000">IN Detect</text>
</g>
<!-- nid&#45;19&#45;out&#45;&gt;nid&#45;23 -->
<g id="edge43" class="edge">
<title>nid&#45;19&#45;out&#45;&gt;nid&#45;23</title>
<path fill="none" stroke="#c0c0c0" stroke-dasharray="5,2" d="M575.9804,-649.9958C637.2235,-660.3948 723.0126,-673.3516 798.9629,-679 1053.7717,-697.9502 1134.2744,-769.7927 1373.8626,-681 1483.6157,-640.3249 1579.6968,-537.1705 1628.4638,-477.4966"/>
<polygon fill="#c0c0c0" stroke="#c0c0c0" points="1631.4634,-479.3534 1635.0275,-469.376 1626.0193,-474.9531 1631.4634,-479.3534"/>
</g>
<!-- nid&#45;19&#45;out&#45;&gt;nid&#45;22 -->
<g id="edge37" class="edge">
<title>nid&#45;19&#45;out&#45;&gt;nid&#45;22</title>
<path fill="none" stroke="#c0c0c0" stroke-dasharray="5,2" d="M576.2281,-603.9478C584.1152,-599.966 591.8245,-595.642 598.9629,-591 701.4908,-524.3272 689.5937,-456.7323 798.9629,-402 835.8933,-383.5187 1431.5469,-289.175 1611.4434,-260.9726"/>
<polygon fill="#c0c0c0" stroke="#c0c0c0" points="1612.1053,-264.4117 1621.4431,-259.406 1611.0218,-257.496 1612.1053,-264.4117"/>
</g>
<!-- nid&#45;19&#45;out&#45;&gt;nid&#45;0b&#45;ampin&#45;25 -->
<g id="edge13" class="edge">
<title>nid&#45;19&#45;out&#45;&gt;nid&#45;0b&#45;ampin&#45;25</title>
<path fill="none" stroke="#333333" d="M576.2971,-632.2748C654.9859,-629.6776 770.955,-625.8499 836.8769,-623.674"/>
<polygon fill="#333333" stroke="#333333" points="837.1348,-627.1675 847.0139,-623.3394 836.9038,-620.1713 837.1348,-627.1675"/>
</g>
<!-- nid&#45;1a&#45;out -->
<g id="node21" class="node">
<title>nid&#45;1a&#45;out</title>
<polygon fill="none" stroke="#00ff00" points="576.2278,-579 411.2322,-579 411.2322,-515 576.2278,-515 576.2278,-579"/>
<text text-anchor="middle" x="493.73" y="-563.8" font-family="Times,serif" font-size="14.00" fill="#000000">0x1a</text>
<text text-anchor="middle" x="493.73" y="-549.8" font-family="Times,serif" font-size="14.00" fill="#000000">[N/A] Speaker at Ext Rear</text>
<text text-anchor="middle" x="493.73" y="-535.8" font-family="Times,serif" font-size="14.00" fill="#000000">Stereo</text>
<text text-anchor="middle" x="493.73" y="-521.8" font-family="Times,serif" font-size="14.00" fill="#000000">IN OUT HP EAPD Detect</text>
</g>
<!-- nid&#45;1a&#45;out&#45;&gt;nid&#45;23 -->
<g id="edge44" class="edge">
<title>nid&#45;1a&#45;out&#45;&gt;nid&#45;23</title>
<path fill="none" stroke="#333333" d="M573.7097,-579.0775C648.487,-608.4197 755.0236,-648.3899 798.9629,-656 924.8443,-677.8022 1252.9553,-697.2662 1373.8626,-656 1477.7477,-620.5436 1573.2858,-530.8565 1624.1484,-476.6389"/>
<polygon fill="#333333" stroke="#333333" points="1626.7853,-478.9429 1631.0251,-469.2334 1621.6557,-474.1797 1626.7853,-478.9429"/>
</g>
<!-- nid&#45;1a&#45;out&#45;&gt;nid&#45;22 -->
<g id="edge38" class="edge">
<title>nid&#45;1a&#45;out&#45;&gt;nid&#45;22</title>
<path fill="none" stroke="#c0c0c0" stroke-dasharray="5,2" d="M537.1471,-514.8513C594.1131,-474.4362 698.659,-406.2179 798.9629,-372 1093.1568,-271.6381 1471.1617,-255.7187 1609.1008,-253.3466"/>
<polygon fill="#c0c0c0" stroke="#c0c0c0" points="1609.4425,-256.8418 1619.3871,-253.1875 1609.3342,-249.8427 1609.4425,-256.8418"/>
</g>
<!-- nid&#45;1a&#45;out&#45;&gt;nid&#45;0b&#45;ampin&#45;26 -->
<g id="edge14" class="edge">
<title>nid&#45;1a&#45;out&#45;&gt;nid&#45;0b&#45;ampin&#45;26</title>
<path fill="none" stroke="#333333" d="M576.2971,-549.7252C655.2,-552.3295 771.5864,-556.171 837.4139,-558.3437"/>
<polygon fill="#333333" stroke="#333333" points="837.4212,-561.8458 847.5312,-558.6776 837.6522,-554.8496 837.4212,-561.8458"/>
</g>
<!-- nid&#45;1d&#45;out -->
<g id="node22" class="node">
<title>nid&#45;1d&#45;out</title>
<polygon fill="none" stroke="#00ff00" points="591.1964,-405 396.2636,-405 396.2636,-341 591.1964,-341 591.1964,-405"/>
<text text-anchor="middle" x="493.73" y="-389.8" font-family="Times,serif" font-size="14.00" fill="#000000">0x1d</text>
<text text-anchor="middle" x="493.73" y="-375.8" font-family="Times,serif" font-size="14.00" fill="#000000">[N/A] Modem Hand at Ext N/A</text>
<text text-anchor="middle" x="493.73" y="-361.8" font-family="Times,serif" font-size="14.00" fill="#000000">Mono</text>
<text text-anchor="middle" x="493.73" y="-347.8" font-family="Times,serif" font-size="14.00" fill="#000000">IN</text>
</g>
<!-- nid&#45;1d&#45;out&#45;&gt;nid&#45;23 -->
<g id="edge45" class="edge">
<title>nid&#45;1d&#45;out&#45;&gt;nid&#45;23</title>
<path fill="none" stroke="#c0c0c0" stroke-dasharray="5,2" d="M591.2044,-373.8561C753.664,-375.8111 1090.004,-382.1073 1373.8626,-402 1455.4372,-407.7167 1549.5562,-418.6402 1607.5471,-425.8737"/>
<polygon fill="#c0c0c0" stroke="#c0c0c0" points="1607.2332,-429.3617 1617.5914,-427.1347 1608.1053,-422.4162 1607.2332,-429.3617"/>
</g>
<!-- nid&#45;1d&#45;out&#45;&gt;nid&#45;22 -->
<g id="edge39" class="edge">
<title>nid&#45;1d&#45;out&#45;&gt;nid&#45;22</title>
<path fill="none" stroke="#c0c0c0" stroke-dasharray="5,2" d="M574.4367,-340.9043C656.9238,-308.3741 776.0985,-262.2328 798.9629,-258 1099.9589,-202.2783 1470.1407,-232.261 1607.6717,-246.6823"/>
<polygon fill="#c0c0c0" stroke="#c0c0c0" points="1607.6272,-250.1973 1617.9416,-247.776 1608.3685,-243.2366 1607.6272,-250.1973"/>
</g>
<!-- nid&#45;1d&#45;out&#45;&gt;nid&#45;0b&#45;ampin&#45;29 -->
<g id="edge15" class="edge">
<title>nid&#45;1d&#45;out&#45;&gt;nid&#45;0b&#45;ampin&#45;29</title>
<path fill="none" stroke="#333333" d="M591.09,-403.8989C668.9899,-428.6218 775.0985,-462.2972 836.9847,-481.9378"/>
<polygon fill="#333333" stroke="#333333" points="836.3064,-485.3945 846.8967,-485.0836 838.424,-478.7225 836.3064,-485.3945"/>
</g>
<!-- nid&#45;0c -->
<g id="node23" class="node">
<title>nid&#45;0c</title>
<polygon fill="none" stroke="#000000" points="2067.7348,-753 2046.7177,-782.2881 2004.6835,-782.2881 1983.6664,-753 2004.6835,-723.7119 2046.7177,-723.7119 2067.7348,-753"/>
<text text-anchor="middle" x="2025.7006" y="-755.8" font-family="Times,serif" font-size="14.00" fill="#000000">0x0c</text>
<text text-anchor="middle" x="2025.7006" y="-741.8" font-family="Times,serif" font-size="14.00" fill="#000000">Stereo</text>
</g>
<!-- nid&#45;14&#45;in -->
<g id="node33" class="node">
<title>nid&#45;14&#45;in</title>
<polygon fill="none" stroke="#00ff00" points="2474.716,-696 2308.5773,-696 2308.5773,-632 2474.716,-632 2474.716,-696"/>
<text text-anchor="middle" x="2391.6466" y="-680.8" font-family="Times,serif" font-size="14.00" fill="#000000">0x14</text>
<text text-anchor="middle" x="2391.6466" y="-666.8" font-family="Times,serif" font-size="14.00" fill="#000000">[Fixed] Speaker at Int N/A</text>
<text text-anchor="middle" x="2391.6466" y="-652.8" font-family="Times,serif" font-size="14.00" fill="#000000">Stereo</text>
<text text-anchor="middle" x="2391.6466" y="-638.8" font-family="Times,serif" font-size="14.00" fill="#000000">OUT EAPD</text>
</g>
<!-- nid&#45;0c&#45;&gt;nid&#45;14&#45;in -->
<g id="edge24" class="edge">
<title>nid&#45;0c&#45;&gt;nid&#45;14&#45;in</title>
<path fill="none" stroke="#c0c0c0" stroke-dasharray="5,2" d="M2061.7904,-744.2228C2116.3472,-730.9543 2221.6126,-705.3532 2298.6039,-686.6285"/>
<polygon fill="#c0c0c0" stroke="#c0c0c0" points="2299.4316,-690.0293 2308.3212,-684.2652 2297.7773,-683.2275 2299.4316,-690.0293"/>
</g>
<!-- nid&#45;0c&#45;&gt;nid&#45;17&#45;in -->
<g id="edge26" class="edge">
<title>nid&#45;0c&#45;&gt;nid&#45;17&#45;in</title>
<path fill="none" stroke="#333333" d="M2057.2176,-768.0719C2114.1428,-795.2942 2235.595,-853.3741 2315.4004,-891.5381"/>
<polygon fill="#333333" stroke="#333333" points="2313.9042,-894.7022 2324.4357,-895.8589 2316.9242,-888.3871 2313.9042,-894.7022"/>
</g>
<!-- nid&#45;1a&#45;in -->
<g id="node35" class="node">
<title>nid&#45;1a&#45;in</title>
<polygon fill="none" stroke="#00ff00" points="2474.1444,-872 2309.1488,-872 2309.1488,-808 2474.1444,-808 2474.1444,-872"/>
<text text-anchor="middle" x="2391.6466" y="-856.8" font-family="Times,serif" font-size="14.00" fill="#000000">0x1a</text>
<text text-anchor="middle" x="2391.6466" y="-842.8" font-family="Times,serif" font-size="14.00" fill="#000000">[N/A] Speaker at Ext Rear</text>
<text text-anchor="middle" x="2391.6466" y="-828.8" font-family="Times,serif" font-size="14.00" fill="#000000">Stereo</text>
<text text-anchor="middle" x="2391.6466" y="-814.8" font-family="Times,serif" font-size="14.00" fill="#000000">IN OUT HP EAPD Detect</text>
</g>
<!-- nid&#45;0c&#45;&gt;nid&#45;1a&#45;in -->
<g id="edge31" class="edge">
<title>nid&#45;0c&#45;&gt;nid&#45;1a&#45;in</title>
<path fill="none" stroke="#333333" d="M2061.7904,-761.58C2116.4087,-774.5649 2221.8498,-799.6325 2298.8639,-817.9419"/>
<polygon fill="#333333" stroke="#333333" points="2298.5198,-821.4575 2309.0582,-820.3654 2300.1389,-814.6473 2298.5198,-821.4575"/>
</g>
<!-- nid&#45;21&#45;in -->
<g id="node40" class="node">
<title>nid&#45;21&#45;in</title>
<polygon fill="none" stroke="#00ff00" points="2474.8929,-784 2308.4003,-784 2308.4003,-720 2474.8929,-720 2474.8929,-784"/>
<text text-anchor="middle" x="2391.6466" y="-768.8" font-family="Times,serif" font-size="14.00" fill="#000000">0x21</text>
<text text-anchor="middle" x="2391.6466" y="-754.8" font-family="Times,serif" font-size="14.00" fill="#000000">[Jack] HP Out at Ext Right</text>
<text text-anchor="middle" x="2391.6466" y="-740.8" font-family="Times,serif" font-size="14.00" fill="#000000">Stereo</text>
<text text-anchor="middle" x="2391.6466" y="-726.8" font-family="Times,serif" font-size="14.00" fill="#000000">OUT HP Detect</text>
</g>
<!-- nid&#45;0c&#45;&gt;nid&#45;21&#45;in -->
<g id="edge34" class="edge">
<title>nid&#45;0c&#45;&gt;nid&#45;21&#45;in</title>
<path fill="none" stroke="#333333" d="M2067.6792,-752.8853C2123.4431,-752.7329 2223.5393,-752.4594 2297.7626,-752.2566"/>
<polygon fill="#333333" stroke="#333333" points="2298.0664,-755.7558 2308.0568,-752.2284 2298.0472,-748.7559 2298.0664,-755.7558"/>
</g>
<!-- nid&#45;0c&#45;ampin&#45;2&#45;&gt;nid&#45;0c -->
<g id="edge16" class="edge">
<title>nid&#45;0c&#45;ampin&#45;2&#45;&gt;nid&#45;0c</title>
<path fill="none" stroke="#0000ff" d="M1734.6871,-759.4099C1807.328,-757.8099 1917.2042,-755.3898 1979.0795,-754.0269"/>
<polygon fill="#0000ff" stroke="#0000ff" points="1979.2219,-755.7743 1984.1821,-753.9145 1979.1448,-752.2751 1979.2219,-755.7743"/>
</g>
<!-- nid&#45;0c&#45;ampin&#45;11&#45;&gt;nid&#45;0c -->
<g id="edge17" class="edge">
<title>nid&#45;0c&#45;ampin&#45;11&#45;&gt;nid&#45;0c</title>
<path fill="none" stroke="#c8c8c8" d="M1707.0312,-705.6215C1777.2779,-716.0655 1912.9408,-736.2353 1982.4071,-746.5633"/>
<polygon fill="#c8c8c8" stroke="#c8c8c8" points="1982.4962,-748.3457 1987.6992,-747.3501 1983.0109,-744.8838 1982.4962,-748.3457"/>
</g>
<!-- nid&#45;0d -->
<g id="node26" class="node">
<title>nid&#45;0d</title>
<polygon fill="none" stroke="#000000" points="2067.7348,-839 2046.7177,-868.2881 2004.6835,-868.2881 1983.6664,-839 2004.6835,-809.7119 2046.7177,-809.7119 2067.7348,-839"/>
<text text-anchor="middle" x="2025.7006" y="-841.8" font-family="Times,serif" font-size="14.00" fill="#000000">0x0d</text>
<text text-anchor="middle" x="2025.7006" y="-827.8" font-family="Times,serif" font-size="14.00" fill="#000000">Stereo</text>
</g>
<!-- nid&#45;0d&#45;&gt;nid&#45;14&#45;in -->
<g id="edge25" class="edge">
<title>nid&#45;0d&#45;&gt;nid&#45;14&#45;in</title>
<path fill="none" stroke="#333333" d="M2057.2176,-823.9281C2114.1428,-796.7058 2235.595,-738.6259 2315.4004,-700.4619"/>
<polygon fill="#333333" stroke="#333333" points="2316.9242,-703.6129 2324.4357,-696.1411 2313.9042,-697.2978 2316.9242,-703.6129"/>
</g>
<!-- nid&#45;0d&#45;&gt;nid&#45;17&#45;in -->
<g id="edge27" class="edge">
<title>nid&#45;0d&#45;&gt;nid&#45;17&#45;in</title>
<path fill="none" stroke="#c0c0c0" stroke-dasharray="5,2" d="M2061.7904,-847.7772C2116.5201,-861.0878 2222.2804,-886.8092 2299.3351,-905.5494"/>
<polygon fill="#c0c0c0" stroke="#c0c0c0" points="2298.5143,-908.9517 2309.0582,-907.9141 2300.1686,-902.15 2298.5143,-908.9517"/>
</g>
<!-- nid&#45;0d&#45;&gt;nid&#45;1a&#45;in -->
<g id="edge32" class="edge">
<title>nid&#45;0d&#45;&gt;nid&#45;1a&#45;in</title>
<path fill="none" stroke="#c0c0c0" stroke-dasharray="5,2" d="M2067.6792,-839.1147C2123.7121,-839.2678 2224.5059,-839.5433 2298.8347,-839.7464"/>
<polygon fill="#c0c0c0" stroke="#c0c0c0" points="2299.1302,-843.2471 2309.1398,-839.7745 2299.1494,-836.2471 2299.1302,-843.2471"/>
</g>
<!-- nid&#45;0d&#45;&gt;nid&#45;21&#45;in -->
<g id="edge35" class="edge">
<title>nid&#45;0d&#45;&gt;nid&#45;21&#45;in</title>
<path fill="none" stroke="#c0c0c0" stroke-dasharray="5,2" d="M2061.7904,-830.42C2116.2361,-817.4761 2221.184,-792.5258 2298.1331,-774.2319"/>
<polygon fill="#c0c0c0" stroke="#c0c0c0" points="2299.402,-777.5279 2308.3212,-771.8098 2297.7828,-770.7177 2299.402,-777.5279"/>
</g>
<!-- nid&#45;0d&#45;ampin&#45;3&#45;&gt;nid&#45;0d -->
<g id="edge20" class="edge">
<title>nid&#45;0d&#45;ampin&#45;3&#45;&gt;nid&#45;0d</title>
<path fill="none" stroke="#0000ff" d="M1743.5534,-839C1815.5996,-839 1918.4751,-839 1978.0445,-839"/>
<polygon fill="#0000ff" stroke="#0000ff" points="1978.3178,-840.7501 1983.3178,-839 1978.3177,-837.2501 1978.3178,-840.7501"/>
</g>
<!-- nid&#45;11 -->
<g id="node28" class="node">
<title>nid&#45;11</title>
<ellipse fill="none" stroke="#ff0000" cx="2391.6466" cy="-93" rx="36.7079" ry="25.4118"/>
<text text-anchor="middle" x="2391.6466" y="-95.8" font-family="Times,serif" font-size="14.00" fill="#000000">0x11</text>
<text text-anchor="middle" x="2391.6466" y="-81.8" font-family="Times,serif" font-size="14.00" fill="#000000">Stereo</text>
</g>
<!-- nid&#45;11&#45;ampin -->
<g id="node29" class="node">
<title>nid&#45;11&#45;ampin</title>
<polygon fill="none" stroke="#c8c8c8" points="2052.7006,-93 2012.2006,-111 2012.2006,-75 2052.7006,-93"/>
</g>
<!-- nid&#45;11&#45;ampin&#45;&gt;nid&#45;11 -->
<g id="edge22" class="edge">
<title>nid&#45;11&#45;ampin&#45;&gt;nid&#45;11</title>
<path fill="none" stroke="#c8c8c8" d="M2052.907,-93C2116.2361,-93 2273.8677,-93 2349.653,-93"/>
<polygon fill="#c8c8c8" stroke="#c8c8c8" points="2349.9657,-94.7501 2354.9657,-93 2349.9656,-91.2501 2349.9657,-94.7501"/>
</g>
<!-- nid&#45;24 -->
<g id="node30" class="node">
<title>nid&#45;24</title>
<polygon fill="none" stroke="#000000" points="1716.332,-129 1630.6895,-129 1608.6582,-57 1694.3006,-57 1716.332,-129"/>
<text text-anchor="middle" x="1662.4951" y="-95.8" font-family="Times,serif" font-size="14.00" fill="#000000">0x24</text>
<text text-anchor="middle" x="1662.4951" y="-81.8" font-family="Times,serif" font-size="14.00" fill="#000000">Stereo</text>
</g>
<!-- nid&#45;24&#45;&gt;nid&#45;11&#45;ampin -->
<g id="edge23" class="edge">
<title>nid&#45;24&#45;&gt;nid&#45;11&#45;ampin</title>
<path fill="none" stroke="#333333" d="M1705.5858,-93C1782.7136,-93 1941.9077,-93 2002.0208,-93"/>
<polygon fill="#333333" stroke="#333333" points="2002.0502,-96.5001 2012.0501,-93 2002.0501,-89.5001 2002.0502,-96.5001"/>
</g>
<!-- nid&#45;12&#45;out -->
<g id="node31" class="node">
<title>nid&#45;12&#45;out</title>
<polygon fill="none" stroke="#00ff00" points="1365.6804,-80 1184.4101,-80 1184.4101,-16 1365.6804,-16 1365.6804,-80"/>
<text text-anchor="middle" x="1275.0452" y="-64.8" font-family="Times,serif" font-size="14.00" fill="#000000">0x12</text>
<text text-anchor="middle" x="1275.0452" y="-50.8" font-family="Times,serif" font-size="14.00" fill="#000000">[Fixed] Mic at Oth Mobile&#45;In</text>
<text text-anchor="middle" x="1275.0452" y="-36.8" font-family="Times,serif" font-size="14.00" fill="#000000">Stereo</text>
<text text-anchor="middle" x="1275.0452" y="-22.8" font-family="Times,serif" font-size="14.00" fill="#000000">IN</text>
</g>
<!-- nid&#45;12&#45;out&#45;&gt;nid&#45;22 -->
<g id="edge41" class="edge">
<title>nid&#45;12&#45;out&#45;&gt;nid&#45;22</title>
<path fill="none" stroke="#333333" d="M1349.0433,-80.0756C1357.4656,-83.9842 1365.8849,-88.009 1373.8626,-92 1453.9104,-132.0453 1543.5742,-183.0673 1601.4134,-216.8199"/>
<polygon fill="#333333" stroke="#333333" points="1599.6643,-219.8516 1610.0637,-221.8776 1603.1976,-213.8087 1599.6643,-219.8516"/>
</g>
<!-- nid&#45;12&#45;out&#45;&gt;nid&#45;24 -->
<g id="edge48" class="edge">
<title>nid&#45;12&#45;out&#45;&gt;nid&#45;24</title>
<path fill="none" stroke="#333333" d="M1365.885,-58.5505C1440.9943,-67.274 1545.1713,-79.3735 1607.9771,-86.6681"/>
<polygon fill="#333333" stroke="#333333" points="1607.7325,-90.1631 1618.0696,-87.8402 1608.5402,-83.2098 1607.7325,-90.1631"/>
</g>
<!-- nid&#45;13&#45;out -->
<g id="node32" class="node">
<title>nid&#45;13&#45;out</title>
<polygon fill="none" stroke="#00ff00" points="1358.7905,-168 1191.2999,-168 1191.2999,-104 1358.7905,-104 1358.7905,-168"/>
<text text-anchor="middle" x="1275.0452" y="-152.8" font-family="Times,serif" font-size="14.00" fill="#000000">0x13</text>
<text text-anchor="middle" x="1275.0452" y="-138.8" font-family="Times,serif" font-size="14.00" fill="#000000">[N/A] Line Out at Ext N/A</text>
<text text-anchor="middle" x="1275.0452" y="-124.8" font-family="Times,serif" font-size="14.00" fill="#000000">Stereo</text>
<text text-anchor="middle" x="1275.0452" y="-110.8" font-family="Times,serif" font-size="14.00" fill="#000000">IN</text>
</g>
<!-- nid&#45;13&#45;out&#45;&gt;nid&#45;23 -->
<g id="edge47" class="edge">
<title>nid&#45;13&#45;out&#45;&gt;nid&#45;23</title>
<path fill="none" stroke="#c0c0c0" stroke-dasharray="5,2" d="M1316.8773,-168.0664C1387.1096,-221.903 1528.7198,-330.4544 1607.1192,-390.5516"/>
<polygon fill="#c0c0c0" stroke="#c0c0c0" points="1605.365,-393.6169 1615.4309,-396.9229 1609.6237,-388.0613 1605.365,-393.6169"/>
</g>
<!-- nid&#45;13&#45;out&#45;&gt;nid&#45;24 -->
<g id="edge49" class="edge">
<title>nid&#45;13&#45;out&#45;&gt;nid&#45;24</title>
<path fill="none" stroke="#c0c0c0" stroke-dasharray="5,2" d="M1359.1161,-126.6696C1435.6459,-118.1762 1546.2181,-105.9047 1610.5889,-98.7607"/>
<polygon fill="#c0c0c0" stroke="#c0c0c0" points="1611.3433,-102.1985 1620.8961,-97.6167 1610.5711,-95.2412 1611.3433,-102.1985"/>
</g>
<!-- nid&#45;1a&#45;ampout -->
<g id="node36" class="node">
<title>nid&#45;1a&#45;ampout</title>
<polygon fill="none" stroke="#c8c8c8" points="2745.0196,-840 2704.5196,-858 2704.5196,-822 2745.0196,-840"/>
</g>
<!-- nid&#45;1a&#45;in&#45;&gt;nid&#45;1a&#45;ampout -->
<g id="edge29" class="edge">
<title>nid&#45;1a&#45;in&#45;&gt;nid&#45;1a&#45;ampout</title>
<path fill="none" stroke="#c8c8c8" d="M2474.0043,-840C2549.7013,-840 2656.4416,-840 2699.2168,-840"/>
<polygon fill="#c8c8c8" stroke="#c8c8c8" points="2699.3468,-841.7501 2704.3468,-840 2699.3467,-838.2501 2699.3468,-841.7501"/>
</g>
<!-- nid&#45;1a&#45;ampin -->
<g id="node37" class="node">
<title>nid&#45;1a&#45;ampin</title>
<polygon fill="none" stroke="#0000ff" points="125.2485,-547 84.7485,-565 84.7485,-529 125.2485,-547"/>
</g>
<!-- nid&#45;1a&#45;ampin&#45;&gt;nid&#45;1a&#45;out -->
<g id="edge30" class="edge">
<title>nid&#45;1a&#45;ampin&#45;&gt;nid&#45;1a&#45;out</title>
<path fill="none" stroke="#0000ff" d="M125.4316,-547C182.466,-547 316.7531,-547 406.4295,-547"/>
<polygon fill="#0000ff" stroke="#0000ff" points="406.4671,-548.7501 411.467,-547 406.467,-545.2501 406.4671,-548.7501"/>
</g>
<!-- nid&#45;1f&#45;out -->
<g id="node39" class="node">
<title>nid&#45;1f&#45;out</title>
<polygon fill="none" stroke="#00ff00" points="180.7464,-994 15.7507,-994 15.7507,-930 180.7464,-930 180.7464,-994"/>
<text text-anchor="middle" x="98.2485" y="-978.8" font-family="Times,serif" font-size="14.00" fill="#000000">0x1f</text>
<text text-anchor="middle" x="98.2485" y="-964.8" font-family="Times,serif" font-size="14.00" fill="#000000">[N/A] Speaker at Ext Rear</text>
<text text-anchor="middle" x="98.2485" y="-950.8" font-family="Times,serif" font-size="14.00" fill="#000000">Stereo</text>
<text text-anchor="middle" x="98.2485" y="-936.8" font-family="Times,serif" font-size="14.00" fill="#000000">IN Detect</text>
</g>
<!-- nid&#45;1f&#45;out&#45;&gt;nid&#45;25 -->
<g id="edge50" class="edge">
<title>nid&#45;1f&#45;out&#45;&gt;nid&#45;25</title>
<path fill="none" stroke="#333333" d="M180.673,-962C258.7818,-962 373.7898,-962 440.4904,-962"/>
<polygon fill="#333333" stroke="#333333" points="440.7677,-965.5001 450.7676,-962 440.7676,-958.5001 440.7677,-965.5001"/>
</g>
</g>
</svg>
